<?xml version="1.0" encoding="UTF-8" standalone="no"?>
<!-- Created with Inkscape (http://www.inkscape.org/) -->

<svg
   width="297mm"
   height="210mm"
   viewBox="0 0 297 210"
   version="1.1"
   id="svg1"
   xmlns:xlink="http://www.w3.org/1999/xlink"
   xmlns="http://www.w3.org/2000/svg"
   xmlns:svg="http://www.w3.org/2000/svg">
  <defs
     id="defs1">
    <linearGradient
       xlink:href="#linearGradient9"
       id="linearGradient10"
       x1="4.4985762"
       y1="121.44158"
       x2="131.515"
       y2="121.44158"
       gradientUnits="userSpaceOnUse" />
    <linearGradient
       id="linearGradient9">
      <stop
         style="stop-color:#d4ff00;stop-opacity:1;"
         offset="0.71496439"
         id="stop9" />
      <stop
         style="stop-color:#000000;stop-opacity:0.66115701;"
         offset="1"
         id="stop10" />
    </linearGradient>
    <linearGradient
       xlink:href="#linearGradient11"
       id="linearGradient12"
       x1="72.263184"
       y1="82.573967"
       x2="198.49371"
       y2="82.573967"
       gradientUnits="userSpaceOnUse" />
    <linearGradient
       id="linearGradient11">
      <stop
         style="stop-color:#000000;stop-opacity:0.65619832;"
         offset="0"
         id="stop12" />
      <stop
         style="stop-color:#d4ff00;stop-opacity:1;"
         offset="0.30403802"
         id="stop11" />
    </linearGradient>
  </defs>
  <g
     id="layer1">
    <g
       id="g1"
       transform="matrix(0.52829455,0,0,0.52829455,72.992212,-7.5769069)">
      <g
         id="g2"
         transform="matrix(0.37948207,0,0,0.37948207,-9.5891279,113.56725)"
         style="fill:#ffd42a">
        <g
           id="g16"
           transform="translate(-4.4985763,-9.9684918)"
           style="display:inline;fill:#ffd42a">
          <path
             d="M 47.359945,193.87524 84.511551,79.5344 a 5.6871077,5.6871077 0 0 1 5.40877,-3.929711 h 32.600999 l 8.69781,-26.769144 H 60.209594 A 29.247983,29.247983 0 0 0 32.39311,69.045402 L 4.7453324,154.13649 Z"
             style="fill:url(#linearGradient10);stroke:#000000;stroke-width:0.429918"
             id="path15" />
          <path
             d="M 141.20749,154.96448 A 32.497759,32.497759 0 0 0 172.1147,132.50906 L 198.24936,52.074897 157.98041,10.37516 122.40179,119.87489 a 8.12444,8.12444 0 0 1 -7.7268,5.61388 H 82.136311 l -9.57726,29.47571 z"
             style="fill:url(#linearGradient12);stroke:#000000;stroke-width:0.429918"
             id="path16" />
          <path
             style="fill:#ffd42a;fill-opacity:0;stroke-width:1.73976"
             d="M 26.93925,174.14174 C 15.924823,163.83604 6.5613026,155.0508 6.1314286,154.61897 5.416822,153.90112 6.5485819,150.14711 19.33745,110.81498 27.030636,87.154608 33.958507,66.484105 34.73272,64.880528 c 1.972134,-4.084755 8.252885,-10.303076 12.495634,-12.371429 6.490146,-3.163966 5.30472,-3.08469 46.125616,-3.08469 35.08104,0 37.07092,0.04648 36.845,0.860624 -0.13134,0.473344 -1.97806,6.22723 -4.10381,12.786415 l -3.86501,11.92579 h -16.73913 c -15.100842,0 -16.898652,0.08555 -18.368912,0.874054 -0.896372,0.48073 -1.950312,1.421269 -2.342083,2.090087 -0.391776,0.668818 -9.000681,26.753821 -19.130905,57.966661 -10.130224,31.21284 -18.478223,56.79579 -18.551112,56.85098 -0.07289,0.0552 -9.144329,-8.33158 -20.158758,-18.63728 z"
             id="path23" />
          <path
             style="fill:#ffd42a;fill-opacity:0;stroke-width:1.73976"
             d="M 26.93925,174.14174 C 15.924823,163.83604 6.5613026,155.0508 6.1314286,154.61897 5.416822,153.90112 6.5485819,150.14711 19.33745,110.81498 27.030636,87.154608 33.958507,66.484105 34.73272,64.880528 c 1.972134,-4.084755 8.252885,-10.303076 12.495634,-12.371429 6.490146,-3.163966 5.30472,-3.08469 46.125616,-3.08469 35.08104,0 37.07092,0.04648 36.845,0.860624 -0.13134,0.473344 -1.97806,6.22723 -4.10381,12.786415 l -3.86501,11.92579 h -16.73913 c -15.100842,0 -16.898652,0.08555 -18.368912,0.874054 -0.896372,0.48073 -1.950312,1.421269 -2.342083,2.090087 -0.391776,0.668818 -9.000681,26.753821 -19.130905,57.966661 -10.130224,31.21284 -18.478223,56.79579 -18.551112,56.85098 -0.07289,0.0552 -9.144329,-8.33158 -20.158758,-18.63728 z"
             id="path24" />
          <path
             style="fill:#ffd42a;fill-opacity:0;stroke-width:1.73976"
             d="M 26.93925,174.14174 C 15.924823,163.83604 6.5613026,155.0508 6.1314286,154.61897 5.416822,153.90112 6.5485819,150.14711 19.33745,110.81498 27.030636,87.154608 33.958507,66.484105 34.73272,64.880528 c 1.972134,-4.084755 8.252885,-10.303076 12.495634,-12.371429 6.490146,-3.163966 5.30472,-3.08469 46.125616,-3.08469 35.08104,0 37.07092,0.04648 36.845,0.860624 -0.13134,0.473344 -1.97806,6.22723 -4.10381,12.786415 l -3.86501,11.92579 h -16.73913 c -15.100842,0 -16.898652,0.08555 -18.368912,0.874054 -0.896372,0.48073 -1.950312,1.421269 -2.342083,2.090087 -0.391776,0.668818 -9.000681,26.753821 -19.130905,57.966661 -10.130224,31.21284 -18.478223,56.79579 -18.551112,56.85098 -0.07289,0.0552 -9.144329,-8.33158 -20.158758,-18.63728 z"
             id="path25" />
        </g>
        <g
           id="g18"
           transform="translate(-4.4985763,-9.9684918)"
           style="fill:#ffd42a">
          <path
             style="fill:#ffd42a;fill-opacity:0;stroke-width:2.11554"
             d="M 26.15049,173.31573 C 14.697519,162.62402 5.4445774,153.56396 5.5883974,153.18227 5.7322184,152.80066 12.099479,133.24745 19.737867,109.73081 27.37626,86.214159 34.334444,65.664097 35.200502,64.063943 37.388511,60.021292 42.151803,55.371509 46.444085,53.0883 c 7.088936,-3.770859 6.904303,-3.756196 47.341656,-3.756196 34.675489,0 36.673439,0.05755 36.352659,1.04651 -0.1867,0.57557 -2.03023,6.294043 -4.09674,12.707647 l -3.7573,11.661152 -17.45918,0.299006 -17.459189,0.299028 -1.52763,1.528573 c -1.22277,1.223514 -5.22424,12.910306 -20.050188,58.55918 -10.187405,31.36681 -18.58815,57.09615 -18.668325,57.17635 -0.08018,0.0802 -9.516387,-8.60204 -20.969358,-19.29382 z"
             id="path18" />
          <path
             style="fill:#ffd42a;fill-opacity:0;stroke-width:2.11554"
             d="M 26.15049,173.31573 C 14.697519,162.62402 5.4445774,153.56396 5.5883974,153.18227 5.7322184,152.80066 12.099479,133.24745 19.737867,109.73081 27.37626,86.214159 34.334444,65.664097 35.200502,64.063943 37.388511,60.021292 42.151803,55.371509 46.444085,53.0883 c 7.088936,-3.770859 6.904303,-3.756196 47.341656,-3.756196 34.675489,0 36.673439,0.05755 36.352659,1.04651 -0.1867,0.57557 -2.03023,6.294043 -4.09674,12.707647 l -3.7573,11.661152 -17.45918,0.299006 -17.459189,0.299028 -1.52763,1.528573 c -1.22277,1.223514 -5.22424,12.910306 -20.050188,58.55918 -10.187405,31.36681 -18.58815,57.09615 -18.668325,57.17635 -0.08018,0.0802 -9.516387,-8.60204 -20.969358,-19.29382 z"
             id="path19" />
          <path
             style="fill:#ffd42a;fill-opacity:0;stroke-width:2.11554"
             d="m 73.586571,154.05782 c 0,-0.32043 2.02525,-6.78093 4.50056,-14.35657 l 4.50056,-13.77405 17.915579,-0.1746 17.91558,-0.1746 2.04833,-2.09302 c 1.89603,-1.93736 3.36846,-6.1615 19.80294,-56.810662 9.76502,-30.094709 17.8298,-54.797245 17.92173,-54.894524 0.23394,-0.24758 38.64502,39.49004 38.98566,40.332033 0.40252,0.99496 -25.94741,81.875393 -27.82516,85.408703 -2.15713,4.05894 -8.3427,10.50313 -11.98386,12.48492 -1.64994,0.89798 -4.55872,2.22085 -6.46397,2.93965 -3.40306,1.2839 -4.11466,1.31034 -40.39101,1.50111 -23.700929,0.12463 -36.926939,-0.0146 -36.926939,-0.38839 z"
             id="path20" />
          <path
             style="fill:#ffd42a;fill-opacity:0;stroke-width:2.11554"
             d="M 26.15049,173.31573 C 14.697519,162.62402 5.4445774,153.56396 5.5883974,153.18227 5.7322184,152.80066 12.099479,133.24745 19.737867,109.73081 27.37626,86.214159 34.334444,65.664097 35.200502,64.063943 37.388511,60.021292 42.151803,55.371509 46.444085,53.0883 c 7.088936,-3.770859 6.904303,-3.756196 47.341656,-3.756196 34.675489,0 36.673439,0.05755 36.352659,1.04651 -0.1867,0.57557 -2.03023,6.294043 -4.09674,12.707647 l -3.7573,11.661152 -17.45918,0.299006 -17.459189,0.299028 -1.52763,1.528573 c -1.22277,1.223514 -5.22424,12.910306 -20.050188,58.55918 -10.187405,31.36681 -18.58815,57.09615 -18.668325,57.17635 -0.08018,0.0802 -9.516387,-8.60204 -20.969358,-19.29382 z"
             id="path21" />
          <path
             style="fill:#ffd42a;fill-opacity:0;stroke-width:2.11554"
             d="m 73.586571,154.05782 c 0,-0.32043 2.02525,-6.78093 4.50056,-14.35657 l 4.50056,-13.77405 17.915579,-0.1746 17.91558,-0.1746 2.04833,-2.09302 c 1.89603,-1.93736 3.36846,-6.1615 19.80294,-56.810662 9.76502,-30.094709 17.8298,-54.797245 17.92173,-54.894524 0.23394,-0.24758 38.64502,39.49004 38.98566,40.332033 0.40252,0.99496 -25.94741,81.875393 -27.82516,85.408703 -2.15713,4.05894 -8.3427,10.50313 -11.98386,12.48492 -1.64994,0.89798 -4.55872,2.22085 -6.46397,2.93965 -3.40306,1.2839 -4.11466,1.31034 -40.39101,1.50111 -23.700929,0.12463 -36.926939,-0.0146 -36.926939,-0.38839 z"
             id="path22" />
        </g>
      </g>
      <text
         xml:space="preserve"
         style="font-size:66.5735px;text-align:start;writing-mode:lr-tb;direction:ltr;text-anchor:start;fill:#ffffff;fill-opacity:1;stroke-width:1.22663"
         x="73.001221"
         y="167.88823"
         id="text12"><tspan
           id="tspan12"
           style="font-style:italic;font-variant:normal;font-weight:bold;font-stretch:normal;font-family:Calibri;-inkscape-font-specification:'Calibri Bold Italic';fill:#ffffff;stroke-width:1.22663"
           x="73.001221"
           y="167.88823">design ltd</tspan></text>
    </g>
  </g>
</svg>
